<?xml version="1.0" encoding="UTF-8" standalone="no"?>
<svg
   width="500"
   height="500"
   viewBox="0 0 500 500"
   xmlns="http://www.w3.org/2000/svg">
  <g
     style="fill:#9d9bb3; fill-opacity:0.5"
     id="text"
     transform="matrix(9.4684326,0,0,9.472438,1410.6811,-9001.8461)">
    <path
       d="m -118.46541,960.83502 q -0.67,-0.18 -0.67,0.51 v 8.84 a 0.71,0.7 0 0 0 0.71,0.7 h 13.53 a 3.61,3.62 0 0 1 3.61,3.62 v 7.72 q 0,2.6 -2.56,3.06 -0.25,0.04 -0.35,0.03 -2.92,-0.27 -2.92,-2.74 l 0.01,-5.43 a 0.45,0.45 0 0 0 -0.45,-0.45 h -11.15 a 0.4,0.39 0 0 0 -0.4,0.39 v 14.97 a 0.53,0.52 78.6 0 0 0.73,0.49 l 3.86,-1.65 q 0.5,-0.21 1.03,-0.09 c 4.3,0.99 3.36,5.34 -0.18,6.66 -14.88,5.53998 -29.53,-5.9 -28.97,-21.57 0.69,-19.39 23.68,-29.1 36.91,-13.86 q 2.96,3.42 -0.44,5.82 a 2.21,2.21 0 0 1 -2.9,-0.32 c -3.18,-3.5 -4.84,-5.44 -9.4,-6.7 m -18.67,15.87 c -0.01,7.07 4.78,13.37 11.43,15.53 q 0.73,0.24 0.75,-0.53 0.02,-0.96 0.04,-14.98 0.03,-14.02 0.02,-14.98 -0.02,-0.77 -0.74,-0.53 c -6.66,2.14 -11.48,8.41 -11.5,15.49"
       id="name" />
  </g>
</svg>
