<?xml version="1.0" encoding="UTF-8" standalone="no"?>
<svg
   xmlns="http://www.w3.org/2000/svg"
   width="500"
   height="500"
   viewBox="0 0 500 500"
   version="1.1">
  <g transform="translate(-86.805351,169.86873)">
    <g transform="matrix(0,-10.722558,10.722558,0,336.8,201.8)">
      <path
         style="fill:#28458a;fill-opacity:0.5;fill-rule:evenodd;stroke:none"
         d="m 0,0 c 0,9.633 5.098,17.487 11.348,17.487 6.249,0 11.346,-7.854 11.346,-17.487 0,-9.632 -5.097,-17.486 -11.346,-17.486 C 5.098,-17.486 0,-9.632 0,0" />
    </g>
    <g transform="matrix(0,-10.722558,10.722558,0,163.2,74.4)">
      <path
         style="fill:#ffffff;fill-opacity:0.5;fill-rule:evenodd;stroke:none"
         d="m 0,0 c -1.748,0.826 -2.267,2.274 -2.256,3.789 0.019,3.082 1.719,3.128 1.395,5.44 -0.09,0.644 -0.511,1.475 -1.284,1.874 -1.609,0.834 -3.656,0.478 -4.714,2.543 -0.373,0.729 -0.303,2.924 1.068,3.651 0.461,0.245 1.625,0.649 2.682,0.103 0.255,-0.131 0.688,-0.602 0.777,-1.089 0.07,-0.377 0.311,-1.277 -0.766,-1.177 0.241,0.884 -0.893,0.806 -1.155,0.632 -0.262,-0.178 -0.452,-0.73 -0.241,-1.09 0.78,-1.324 2.03,-1.405 2.838,-0.5 0.299,0.337 0.577,0.425 0.596,1.466 0.033,1.648 -0.487,2.132 -1.027,2.954 -0.479,0.725 -0.952,1.41 -1.011,2.286 -0.13,1.968 0.683,3.501 1.515,4.81 0.974,1.533 1.948,3.274 1.034,5.787 -0.197,0.542 -0.202,1.154 0.274,0.744 1.09,-0.939 1.582,-2.401 1.594,-3.56 C 1.328,27.965 1.216,27.342 1.104,26.906 0.725,25.414 -0.354,24.516 0,22.603 0.116,21.975 0.836,20.95 1.75,20.598 3.495,19.924 5.936,20.211 5.998,17.363 6.029,15.936 5.376,15.026 4.634,14.684 3.861,14.325 2.749,14.211 2.1,14.757 1.711,15.084 1.079,15.7 1.606,16.542 2.307,17.655 2.132,15.626 3.138,16.387 3.814,16.898 3.382,17.809 2.963,18.146 2.425,18.581 1.378,18.602 0.94,18.066 -1.685,14.855 2.184,13.408 2.156,11.027 2.107,6.705 -0.248,6.253 -0.52,3.77 -0.818,1.021 0.241,1.234 0,0" />
    </g>
  </g>
</svg>
